<svg xmlns="http://www.w3.org/2000/svg" width="200" height="200" viewBox="0 0 200 200" version="1.1">
	<path d="M 123.457 21.849 C 116.063 26.393, 112.521 33.701, 113.195 43.025 C 114.388 59.513, 133.065 68.170, 147.075 58.728 C 151.009 56.077, 155 50.553, 155 47.758 C 155 46.005, 154.517 45.879, 150.136 46.481 C 141.382 47.685, 134.012 43.884, 130.005 36.100 C 128.884 33.924, 128.520 27.585, 129.226 22.538 C 129.599 19.871, 127.152 19.579, 123.457 21.849 M 121.247 29.244 C 116.633 34.169, 115.676 42.484, 118.977 48.956 C 124.353 59.492, 139.615 61.712, 147.416 53.093 C 149.307 51.003, 149.304 51, 145.405 50.978 C 135.967 50.925, 127.579 43.745, 125.003 33.514 L 123.361 26.987 121.247 29.244 M 56.398 113.947 C 28.318 170.647, 25.498 175.920, 23.110 176.197 C 21.591 176.373, 20.500 177.127, 20.500 178 C 20.500 179.319, 30.142 179.531, 100.250 179.756 C 179.498 180.010, 180 179.999, 180 178.006 C 180 176.189, 179.340 176, 173 176 L 166 176 166 161.784 L 166 147.568 171.402 152.904 C 176.191 157.633, 179 158.763, 179 155.960 C 179 155.452, 176.075 151.937, 172.500 148.147 C 168.308 143.703, 166 140.424, 166 138.913 C 166 136.823, 166.586 137.147, 171.402 141.904 C 176.367 146.807, 179 147.763, 179 144.662 C 179 143.991, 176.075 140.543, 172.500 137 C 167.381 131.927, 166 129.921, 166 127.563 L 166 124.568 171.492 129.992 C 175.767 134.214, 177.250 135.150, 178.185 134.215 C 179.442 132.958, 179.013 132.362, 169.558 122.250 C 167.372 119.912, 164.878 118, 164.015 118 C 161.890 118, 149 131.113, 149 133.275 C 149 136.214, 151.228 135.207, 156.719 129.784 C 161.948 124.620, 162 124.596, 162 127.391 C 162 129.532, 160.304 131.962, 154.972 137.461 C 149.344 143.266, 148.212 144.931, 149.289 145.825 C 150.337 146.694, 151.714 145.844, 155.529 141.970 C 158.222 139.237, 160.779 137, 161.212 137 C 161.646 137, 162 138.025, 162 139.279 C 162 140.756, 159.714 143.824, 155.500 148 C 149.454 153.993, 147.337 158, 150.219 158 C 150.889 158, 153.814 155.653, 156.719 152.784 L 162 147.568 162 161.784 L 162 176 156.918 176 L 151.837 176 121.195 114 C 98.229 67.532, 90.117 52, 88.814 52 C 87.512 52, 79.379 67.543, 56.398 113.947 M 78.720 78.543 L 68.964 98.086 71.601 101.543 C 73.051 103.444, 74.403 105, 74.605 105 C 74.806 105, 76.163 103.200, 77.619 101 C 79.075 98.800, 80.820 97, 81.497 97 C 82.174 97, 84.007 98.846, 85.571 101.103 L 88.414 105.205 92.212 100.853 L 96.011 96.500 98.121 99 C 99.282 100.375, 100.871 102.400, 101.653 103.500 C 103.057 105.474, 103.101 105.468, 105.021 103 C 106.091 101.625, 107.219 99.747, 107.527 98.826 C 107.857 97.839, 104.168 89.324, 98.538 78.076 C 93.287 67.584, 88.874 59, 88.733 59 C 88.592 59, 84.086 67.794, 78.720 78.543 M 48.245 139.500 L 30.004 176 88.502 176 C 120.676 176, 147 175.773, 147 175.495 C 147 175.217, 138.862 158.719, 128.916 138.833 L 110.833 102.677 106.934 107.088 L 103.035 111.500 99.267 107.259 L 95.500 103.017 92.685 107.009 C 90.193 110.542, 87.048 112.327, 86.973 110.250 C 86.958 109.838, 85.698 107.996, 84.173 106.157 L 81.400 102.815 78.564 106.907 C 77.004 109.158, 75.121 111, 74.378 111 C 73.636 111, 71.837 109.200, 70.381 107 C 68.925 104.800, 67.454 103, 67.111 103 C 66.768 103, 58.278 119.425, 48.245 139.500" stroke="none" fill="black" fill-rule="evenodd"/>
</svg>