<?xml version="1.0" encoding="UTF-8" standalone="no" ?>
<!DOCTYPE svg PUBLIC "-//W3C//DTD SVG 1.1//EN" "http://www.w3.org/Graphics/SVG/1.1/DTD/svg11.dtd">
<svg xmlns="http://www.w3.org/2000/svg" xmlns:xlink="http://www.w3.org/1999/xlink" version="1.1" width="24" height="24" viewBox="0 0 24 24" xml:space="preserve">
<desc>Created with Fabric.js 5.3.0</desc>
<defs>
</defs>
<g transform="matrix(1 0 0 1 12 12)" id="Nh_LIhhf2FGhonWKUaago"  >
<path style="stroke: none; stroke-width: 1; stroke-dasharray: none; stroke-linecap: butt; stroke-dashoffset: 0; stroke-linejoin: miter; stroke-miterlimit: 4; fill: rgb(2,197,73); fill-rule: nonzero; opacity: 1;"  transform=" translate(-12.0000283135, -11.9999794831)" d="M 17.472 14.382 C 17.175 14.233 15.714000000000002 13.515 15.442000000000002 13.415 C 15.169000000000002 13.315999999999999 14.971000000000002 13.267 14.772000000000002 13.565 C 14.575000000000003 13.862 14.005000000000003 14.530999999999999 13.832000000000003 14.729 C 13.659000000000002 14.927999999999999 13.485000000000003 14.952 13.188000000000002 14.803999999999998 C 12.891000000000002 14.653999999999998 11.933000000000003 14.341 10.798000000000002 13.328999999999999 C 9.915000000000003 12.540999999999999 9.318000000000001 11.568 9.145000000000001 11.27 C 8.972000000000001 10.972999999999999 9.127 10.812 9.275000000000002 10.664 C 9.409000000000002 10.530999999999999 9.573000000000002 10.317 9.721000000000002 10.144 C 9.870000000000001 9.97 9.919000000000002 9.846 10.019000000000002 9.647 C 10.118000000000002 9.449 10.069000000000003 9.276 9.994000000000002 9.127 C 9.919000000000002 8.978000000000002 9.325000000000001 7.515000000000001 9.078000000000001 6.920000000000001 C 8.836000000000002 6.341000000000001 8.591000000000001 6.420000000000001 8.409 6.410000000000001 C 8.236 6.402000000000001 8.038 6.400000000000001 7.839 6.400000000000001 C 7.641 6.400000000000001 7.319000000000001 6.474000000000001 7.047000000000001 6.772000000000001 C 6.775 7.069000000000001 6.007000000000001 7.788000000000001 6.007000000000001 9.251000000000001 C 6.007000000000001 10.713000000000001 7.072000000000001 12.126000000000001 7.220000000000001 12.325000000000001 C 7.369000000000001 12.523000000000001 9.316 15.525000000000002 12.297 16.812 C 13.006 17.118000000000002 13.559000000000001 17.301000000000002 13.991 17.437 C 14.703 17.664 15.350999999999999 17.632 15.862 17.555 C 16.433 17.47 17.62 16.836 17.868 16.142 C 18.116 15.448 18.116 14.853 18.040999999999997 14.729 C 17.966999999999995 14.604999999999999 17.769 14.530999999999999 17.470999999999997 14.382 M 12.049999999999997 21.785 L 12.045999999999998 21.785 C 10.27576919317523 21.785144829378126 8.538080040870504 21.30918862745487 7.014999999999995 20.406999999999996 L 6.653999999999998 20.193 L 2.912999999999998 21.175 L 3.910999999999998 17.527 L 3.675999999999998 17.153000000000002 C 2.686439335440151 15.577265652089965 2.1629407965188423 13.753687960218391 2.1659999999999964 11.893000000000006 C 2.1669999999999976 6.443000000000002 6.601999999999998 2.009000000000002 12.053999999999998 2.009000000000002 C 14.693999999999999 2.009000000000002 17.176 3.0390000000000024 19.041999999999998 4.907000000000002 C 20.901645322136226 6.758441910309868 21.943369401937115 9.276871987782187 21.935 11.901000000000002 C 21.932 17.351000000000003 17.497999999999998 21.785000000000004 12.049999999999999 21.785000000000004 M 20.463 3.488000000000003 C 18.23746386740902 1.2477841531408735 15.2077696173545 -0.008316351339120232 12.05 -1.7763568394002505e-15 C 5.495 0 0.16 5.335 0.157 11.892 C 0.157 13.988 0.7040000000000001 16.034 1.745 17.837 L 0.057 24 L 6.362 22.346 C 8.105592498619316 23.295919130589613 10.059436832318887 23.79374890275167 12.044999999999998 23.794 L 12.05 23.794 C 18.604 23.794 23.94 18.459 23.943 11.901 C 23.95276311339492 8.744518628083423 22.699713902773738 5.715236154245485 20.463 3.4880000000000013 Z" stroke-linecap="round" />
</g>
</svg>