<svg xmlns="http://www.w3.org/2000/svg" width="200" height="200" viewBox="0 0 200 200" version="1.1">
	<path d="M 81.245 68.500 L 64.004 103 68.502 103 C 70.976 103, 73 103.236, 73 103.525 C 73 103.814, 71.368 107.292, 69.372 111.254 L 65.745 118.457 59.496 105.992 L 53.247 93.526 43.624 112.753 C 38.331 123.328, 34 132.210, 34 132.490 C 34 132.771, 34.900 133, 36 133 C 38.471 133, 38.471 133.157, 35.980 138.040 L 33.959 142 35.980 142 C 37.091 142, 38 142.468, 38 143.040 C 38 143.612, 37.091 145.862, 35.980 148.040 L 33.959 152 40.980 152 L 48 152 48 156.954 L 48 161.909 41.250 162.204 C 35.265 162.466, 34.500 162.727, 34.500 164.500 C 34.500 166.352, 35.167 166.500, 43.500 166.500 L 52.500 166.500 53.045 159 L 53.591 151.500 54.045 159 L 54.500 166.500 75.373 166.771 C 90.278 166.964, 96.651 166.704, 97.665 165.863 C 98.740 164.971, 99.366 164.966, 100.242 165.842 C 101.926 167.526, 136.151 167.449, 137.842 165.758 C 138.830 164.770, 139.244 164.776, 139.871 165.791 C 140.456 166.737, 143.846 166.992, 153.079 166.782 C 164.739 166.517, 165.500 166.378, 165.500 164.500 C 165.500 162.642, 164.739 162.480, 154.750 162.216 L 144 161.932 144 156.966 L 144 152 155.013 152 L 166.025 152 162.500 145 L 158.975 138 162.487 138 C 164.419 138, 166 137.764, 166 137.475 C 166 137.186, 164.419 133.811, 162.487 129.975 L 158.975 123 162.487 123 C 164.419 123, 166 122.777, 166 122.505 C 166 121.494, 139.497 69, 138.987 69 C 138.695 69, 136.048 73.838, 133.105 79.750 L 127.754 90.500 113.635 62.250 C 105.870 46.712, 99.285 34, 99.001 34 C 98.718 34, 90.728 49.525, 81.245 68.500 M 93.234 55.500 L 88.012 66 94.884 66 C 99.680 66, 102.120 66.440, 102.964 67.456 C 105.185 70.133, 103.033 71, 94.169 71 L 85.456 71 80.234 81.500 L 75.012 92 88.947 92 C 103.009 92, 105.402 92.605, 102.964 95.544 C 102.016 96.686, 98.491 97.038, 86.628 97.177 C 75.491 97.307, 73.347 97.504, 78.500 97.927 C 84.642 98.430, 85.500 98.745, 85.500 100.500 C 85.500 102.028, 84.728 102.574, 82.230 102.815 C 79.287 103.098, 78.612 103.821, 75.480 110.040 C 73.566 113.840, 72 117.186, 72 117.475 C 72 117.764, 78.948 118, 87.441 118 C 103.011 118, 105.444 118.555, 102.964 121.544 C 102.035 122.662, 99.120 123, 90.390 123 L 79.025 123 75.513 129.975 C 73.581 133.811, 72 137.186, 72 137.475 C 72 137.764, 84.150 138, 99 138 C 113.850 138, 126 137.766, 126 137.480 C 126 137.194, 123.975 132.928, 121.500 128 C 119.025 123.072, 117 118.806, 117 118.520 C 117 118.234, 119.025 118, 121.500 118 C 123.975 118, 126 117.766, 126 117.480 C 126 117.194, 123.975 112.928, 121.500 108 C 119.025 103.072, 117 98.806, 117 98.520 C 117 98.234, 119.024 98, 121.498 98 L 125.995 98 112.756 71.500 C 105.475 56.925, 99.279 45, 98.987 45 C 98.695 45, 96.106 49.725, 93.234 55.500 M 134.508 87.984 C 130.632 95.933, 130.622 95.985, 132.291 99.484 L 133.968 103 129.484 103 C 127.018 103, 125 103.459, 125 104.020 C 125 104.581, 127.030 109.081, 129.510 114.020 L 134.020 123 129.510 123 C 127.030 123, 125 123.234, 125 123.520 C 125 123.806, 127.030 128.081, 129.510 133.020 L 134.020 142 128.045 142 C 123.162 142, 121.881 142.353, 121.035 143.934 C 120.466 144.998, 120 146.123, 120 146.434 C 120 146.745, 128.550 147, 139 147 C 149.450 147, 158 146.745, 158 146.434 C 158 146.123, 157.534 144.998, 156.965 143.934 C 156.074 142.270, 154.816 142, 147.965 142 C 140.667 142, 140 141.833, 140 140 C 140 138.202, 140.667 138, 146.608 138 C 153.158 138, 153.211 137.978, 152.589 135.500 C 152.024 133.247, 152.260 133, 154.981 133 C 159.753 133, 158.479 129.406, 153.505 128.840 C 149.685 128.405, 148.753 125.170, 152.163 124.179 C 153.840 123.692, 152.806 123.359, 148.500 123 C 143.333 122.569, 142.500 122.222, 142.500 120.500 C 142.500 118.697, 143.264 118.471, 150.250 118.208 C 154.512 118.047, 158 117.713, 158 117.465 C 158 116.446, 139.481 80, 138.963 80 C 138.653 80, 136.649 83.593, 134.508 87.984 M 47.625 115.751 C 44.531 121.920, 42 127.173, 42 127.426 C 42 127.678, 43.913 128.023, 46.250 128.193 C 49.731 128.444, 50.500 128.862, 50.500 130.500 C 50.500 131.986, 49.729 132.580, 47.500 132.812 C 43.032 133.277, 39.864 138, 44.020 138 L 46.041 138 44.020 141.960 C 42.909 144.138, 42 146.163, 42 146.460 C 42 146.757, 47.184 147, 53.520 147 L 65.041 147 63.020 143.040 C 60.527 138.153, 60.527 138, 63.017 138 C 64.974 138, 64.960 137.854, 62.533 133.065 L 60.032 128.130 62.410 127.815 C 64.754 127.505, 64.705 127.335, 59.019 116.017 L 53.250 104.535 47.625 115.751 M 69.221 125.587 C 70.320 127.997, 70.489 128.052, 71.700 126.396 C 73.592 123.808, 73.311 123, 70.521 123 C 68.218 123, 68.126 123.183, 69.221 125.587 M 68 142.540 C 68 142.837, 68.900 144.844, 70 147 C 71.100 149.156, 72 151.163, 72 151.460 C 72 151.757, 68.850 152, 65 152 L 58 152 58 157 L 58 162 76 162 L 94 162 94 152 L 94 142 81 142 C 73.850 142, 68 142.243, 68 142.540 M 104 152 L 104 162 119 162 L 134 162 134 157 L 134 152 123 152 C 116.950 152, 112 151.757, 112 151.460 C 112 151.163, 112.900 149.156, 114 147 C 115.100 144.844, 116 142.837, 116 142.540 C 116 142.243, 113.300 142, 110 142 L 104 142 104 152" stroke="none" fill="black" fill-rule="evenodd"/>
</svg>