<svg xmlns="http://www.w3.org/2000/svg" width="200" height="200" viewBox="0 0 200 200" version="1.1">
	<path d="M 143.352 27.055 C 138.472 28.527, 134.189 34.097, 133.407 39.986 L 132.745 44.983 128.622 44.241 C 114.911 41.775, 89.626 45.466, 65.725 53.422 L 52.949 57.674 51.127 53.554 C 48.871 48.454, 44.063 44.290, 39.427 43.420 C 32.343 42.091, 22.271 47.992, 18.880 55.459 C 15.094 63.794, 17.685 76.206, 23.956 79.775 C 27.532 81.810, 27.499 81.457, 25.008 91 C 21.865 103.042, 20.633 117.653, 21.936 127.444 C 25.188 151.882, 35.977 164.553, 58.953 170.920 C 98.239 181.806, 150.271 168.719, 171.944 142.500 C 177.260 136.069, 182.537 125.545, 184.015 118.429 C 186.468 106.613, 180.466 88.161, 166.409 64.305 L 164.527 61.110 167.495 55.305 C 171.358 47.751, 171.331 42.688, 167.396 36.322 C 162.797 28.884, 151.597 24.567, 143.352 27.055 M 141.564 34.930 C 140.237 36.396, 139.833 38.534, 139.882 43.829 C 139.966 52.795, 139.047 53.685, 131.893 51.561 C 117.350 47.242, 80.365 52.788, 58.131 62.621 C 50.128 66.160, 49.450 65.938, 46.902 58.950 C 45.688 55.623, 43.764 52.248, 42.625 51.450 C 37.451 47.826, 28.230 51.204, 24.695 58.020 C 21.023 65.098, 24.574 76, 30.552 76 C 34.961 76, 35.343 78.191, 32.502 87.181 C 28.714 99.170, 26.692 113.825, 27.501 123.433 C 29.925 152.221, 45.436 165.732, 78.323 167.702 L 88.500 168.312 85.245 164.960 C 77.020 156.494, 75.371 146.047, 78.959 125.156 C 83.032 101.443, 89.097 92, 100.253 92 C 105.531 92, 109.727 95.508, 118.809 107.515 C 136.738 131.218, 141.051 148.039, 131.877 158.487 L 128.839 161.948 134.423 160.026 C 151.976 153.988, 166.129 142.167, 173.761 127.172 C 179.238 116.413, 179.362 111.822, 174.563 97.482 C 171.216 87.480, 163.654 71.191, 159.876 65.846 C 157.384 62.320, 157.482 61.275, 160.999 53.840 C 162.649 50.353, 163.999 46.098, 163.999 44.385 C 164 40.510, 160.706 36.193, 156.364 34.379 C 151.377 32.295, 143.689 32.581, 141.564 34.930 M 148.051 43.662 C 145.606 46.770, 144.535 50.346, 145.385 52.561 C 146.142 54.534, 148 53.482, 148 51.081 C 148 50.090, 149.125 47.621, 150.500 45.595 C 153.408 41.311, 153.480 41, 151.573 41 C 150.787 41, 149.203 42.198, 148.051 43.662 M 151.951 50.046 C 149.498 52.337, 148.975 53.375, 149.839 54.239 C 150.703 55.103, 151.731 54.674, 153.993 52.506 C 156.901 49.721, 157.944 47, 156.106 47 C 155.614 47, 153.744 48.370, 151.951 50.046 M 111.998 59.505 C 110.617 63.139, 110.750 65, 112.393 65 C 113.911 65, 115 62.902, 115 59.977 C 115 56.964, 113.079 56.662, 111.998 59.505 M 32 58.965 C 32 59.495, 32.860 60.390, 33.911 60.952 C 34.961 61.515, 36.798 63.555, 37.992 65.487 C 40.409 69.398, 42 70.012, 42 67.035 C 42 64.392, 36.267 58, 33.896 58 C 32.853 58, 32 58.434, 32 58.965 M 82 61.858 C 82 64.945, 83.276 66.565, 84.912 65.554 C 86.110 64.814, 84.734 59.745, 83.195 59.232 C 82.444 58.981, 82 59.956, 82 61.858 M 121.704 65.670 C 121.417 66.135, 120.857 68.244, 120.461 70.356 C 119.821 73.769, 119.950 74.157, 121.620 73.840 C 122.932 73.591, 123.598 72.465, 123.823 70.115 C 124.136 66.846, 122.760 63.961, 121.704 65.670 M 31.442 67.094 C 30.679 68.329, 31.825 70, 33.437 70 C 34.162 70, 35.331 70.694, 36.035 71.542 C 36.904 72.590, 37.642 72.758, 38.334 72.066 C 39.026 71.374, 38.794 70.430, 37.612 69.123 C 35.585 66.884, 32.250 65.787, 31.442 67.094 M 68.522 66.964 C 67.502 68.615, 69.957 74, 71.730 74 C 72.849 74, 73.050 73.319, 72.543 71.250 C 71.665 67.672, 69.507 65.371, 68.522 66.964 M 96.354 68.480 C 96.709 69.406, 97 71.252, 97 72.582 C 97 74.106, 97.577 75, 98.560 75 C 101.011 75, 100.113 67.633, 97.604 67.157 C 96.176 66.886, 95.867 67.212, 96.354 68.480 M 87 79.358 C 87 82.977, 88.488 84.912, 90.061 83.339 C 91.198 82.202, 89.768 76.756, 88.195 76.232 C 87.419 75.973, 87 77.068, 87 79.358 M 107.612 81.188 C 107.262 82.941, 107.391 84.791, 107.900 85.300 C 109.496 86.896, 111 85.023, 111 81.441 C 111 76.993, 108.489 76.805, 107.612 81.188 M 62.627 79.794 C 62.032 80.757, 65.854 87, 67.039 87 C 68.843 87, 68.815 85.224, 66.963 82.179 C 65.057 79.046, 63.589 78.238, 62.627 79.794 M 77.355 84.518 C 76.559 86.591, 78.921 92, 80.621 92 C 82.374 92, 82.359 90.794, 80.551 86.468 C 78.960 82.661, 78.237 82.219, 77.355 84.518 M 141.704 96.630 C 141.357 96.976, 141.329 99.119, 141.640 101.391 C 142.071 104.533, 141.762 106.068, 140.353 107.793 C 138.622 109.913, 138.353 109.958, 136.267 108.486 C 135.039 107.620, 133.417 104.793, 132.662 102.205 C 131.521 98.290, 130.888 97.500, 128.895 97.500 C 126.746 97.500, 126.508 97.920, 126.575 101.599 C 126.672 106.887, 130.044 112.318, 134.561 114.462 C 138.844 116.494, 142.475 115.584, 145.329 111.761 C 147.729 108.547, 148.776 99.640, 147.004 97.505 C 145.731 95.970, 142.840 95.493, 141.704 96.630 M 95.364 99.458 C 94.219 100.259, 92.264 103.284, 91.019 106.178 C 88.149 112.850, 82.993 137.419, 83.022 144.287 C 83.058 152.870, 87.615 160.395, 94.315 162.933 C 100.853 165.410, 116.690 163.175, 123.868 158.762 C 127.443 156.564, 130.959 150.230, 130.952 146 C 130.936 135.516, 112.154 104.234, 103.048 99.525 C 99.376 97.626, 97.996 97.614, 95.364 99.458 M 162.251 102.114 C 159.118 104.121, 158.718 106, 161.424 106 C 163.353 106, 168.111 101.989, 167.451 100.920 C 166.638 99.605, 165.906 99.773, 162.251 102.114 M 65.767 109.566 C 65.456 109.877, 65.420 112.690, 65.688 115.816 C 66.051 120.055, 65.772 122.008, 64.593 123.500 C 63.034 125.471, 62.972 125.456, 60.256 122.429 C 58.740 120.740, 56.575 118.071, 55.443 116.498 C 53.025 113.134, 50 113.590, 50 117.319 C 50 120.675, 55.415 127.753, 59.456 129.680 C 62.347 131.059, 63.324 131.109, 65.975 130.010 C 67.691 129.300, 69.748 127.454, 70.547 125.909 C 72.302 122.515, 72.473 111.873, 70.800 110.200 C 69.547 108.947, 66.740 108.593, 65.767 109.566 M 162.250 116.662 C 161.563 116.940, 161 117.857, 161 118.700 C 161 119.802, 161.633 120.064, 163.250 119.630 C 164.488 119.299, 166.063 119.021, 166.750 119.014 C 167.438 119.006, 168 118.325, 168 117.500 C 168 116.030, 164.927 115.582, 162.250 116.662 M 146.750 120.392 C 144.706 121.943, 144.437 124, 146.277 124 C 147.967 124, 152 121.141, 152 119.943 C 152 118.572, 148.786 118.847, 146.750 120.392 M 153.713 127.621 C 152.163 129.170, 153.165 130, 156.583 130 C 159.002 130, 160.033 129.594, 159.756 128.750 C 159.297 127.352, 154.818 126.515, 153.713 127.621 M 34 131.369 C 34 132.173, 35.527 132.986, 37.697 133.338 C 41.880 134.017, 42.497 133.737, 41.655 131.543 C 40.885 129.538, 34 129.382, 34 131.369 M 104.228 137.936 C 96.784 140.065, 93.788 142.429, 94.203 145.849 C 94.643 149.480, 99.080 152.259, 105.255 152.771 C 109.954 153.161, 110.980 152.888, 113.832 150.488 C 116.965 147.852, 120 143.207, 120 141.050 C 120 138.987, 115.952 136.001, 113.250 136.071 C 111.737 136.110, 107.678 136.949, 104.228 137.936 M 150.537 137.939 C 149.684 139.321, 154.402 141.444, 156.519 140.631 C 157.425 140.283, 157.982 139.437, 157.756 138.749 C 157.240 137.178, 151.412 136.524, 150.537 137.939 M 42.473 139.044 C 41.477 140.655, 43.831 141.966, 47.750 141.985 C 49.979 141.995, 51 141.529, 51 140.500 C 51 139.580, 50.065 139, 48.582 139 C 47.252 139, 45.497 138.744, 44.683 138.432 C 43.869 138.119, 42.874 138.395, 42.473 139.044 M 59.446 143.087 C 58.296 144.948, 60.350 145.898, 63.925 145.158 C 68.955 144.116, 69.100 142, 64.142 142 C 61.929 142, 59.816 142.489, 59.446 143.087 M 47.250 148.662 C 45.804 149.246, 45.544 152, 46.935 152 C 48.922 152, 53 150, 53 149.025 C 53 147.977, 49.496 147.756, 47.250 148.662 M 65.250 155.493 C 61.868 156.961, 60.411 160.858, 63.750 159.505 C 64.713 159.115, 66.758 158.340, 68.295 157.784 C 69.833 157.228, 70.930 156.289, 70.733 155.699 C 70.173 154.020, 68.766 153.967, 65.250 155.493" stroke="none" fill="black" fill-rule="evenodd"/>
</svg>