<?xml version="1.0" encoding="UTF-8" standalone="no" ?>
<!DOCTYPE svg PUBLIC "-//W3C//DTD SVG 1.1//EN" "http://www.w3.org/Graphics/SVG/1.1/DTD/svg11.dtd">
<svg xmlns="http://www.w3.org/2000/svg" xmlns:xlink="http://www.w3.org/1999/xlink" version="1.1" width="24" height="24" viewBox="0 0 24 24" xml:space="preserve">
<desc>Created with Fabric.js 5.3.0</desc>
<defs>
</defs>
<g transform="matrix(1 0 0 1 12 12)" id="D48FTjIw5VaXI96iYsbDj"  >
<path style="stroke: none; stroke-width: 1; stroke-dasharray: none; stroke-linecap: butt; stroke-dashoffset: 0; stroke-linejoin: miter; stroke-miterlimit: 4; fill: rgb(255,255,255); fill-rule: nonzero; opacity: 1;"  transform=" translate(-11.9999603198, -12.0000177453)" d="M 7.0301 0.084 C 5.7533 0.1442 4.8814 0.34800000000000003 4.1190999999999995 0.6474 C 3.3302999999999994 0.9549 2.6615999999999995 1.3674 1.9962999999999997 2.0351 C 1.3310999999999997 2.7028 0.9212999999999998 3.3719 0.6160999999999996 4.1621 C 0.32069999999999965 4.9258999999999995 0.12049999999999966 5.7985999999999995 0.0640999999999996 7.0761 C 0.007699999999999603 8.3536 -0.004800000000000401 8.7643 0.0014999999999995989 12.0231 C 0.007699999999999599 15.281699999999999 0.0220999999999996 15.690199999999999 0.0839999999999996 16.970399999999998 C 0.1449999999999996 18.246899999999997 0.34799999999999964 19.118599999999997 0.6474999999999996 19.881099999999996 C 0.9554999999999996 20.669999999999998 1.3674999999999997 21.338399999999996 2.0354999999999994 22.003899999999994 C 2.7033999999999994 22.669399999999996 3.3719999999999994 23.078199999999995 4.164 23.383899999999993 C 4.9272 23.678899999999995 5.8001 23.879999999999992 7.0774 23.935899999999993 C 8.3547 23.991899999999994 8.7658 24.004899999999992 12.0236 23.998599999999993 C 15.2814 23.992399999999993 15.691600000000001 23.97789999999999 16.9714 23.917199999999994 C 18.2514 23.856499999999993 19.118399999999998 23.651999999999994 19.8812 23.353899999999992 C 20.6701 23.045299999999994 21.339 22.633899999999993 22.003999999999998 21.96579999999999 C 22.668999999999997 21.297599999999992 23.0785 20.62799999999999 23.383499999999998 19.83739999999999 C 23.679199999999998 19.07419999999999 23.8801 18.201399999999992 23.935499999999998 16.92499999999999 C 23.9915 15.644099999999991 24.004699999999996 15.23519999999999 23.998499999999996 11.97699999999999 C 23.992199999999997 8.71869999999999 23.977499999999996 8.31019999999999 23.916799999999995 7.030499999999989 C 23.856099999999994 5.750799999999989 23.652799999999996 4.8817999999999895 23.353499999999993 4.11879999999999 C 23.045099999999994 3.3298999999999896 22.633499999999994 2.6619999999999893 21.965899999999994 1.9959999999999898 C 21.2982 1.33 20.628 0.9208 19.8378 0.6165 C 19.074 0.321 18.2017 0.1197 16.9244 0.0645 C 15.6471 0.0093 15.236 -0.005 11.977 0.0014 C 8.718 0.0076 8.31 0.0215 7.0301 0.0839 M 7.1703 21.7771 C 6.0003 21.726200000000002 5.365 21.5318 4.9416 21.3691 C 4.381 21.1531 3.9816000000000003 20.892 3.5597000000000003 20.4741 C 3.1377 20.0563 2.8786000000000005 19.6555 2.6597000000000004 19.0961 C 2.4953000000000003 18.6727 2.2973000000000003 18.0381 2.2426000000000004 16.8681 C 2.1831000000000005 15.603599999999998 2.1706000000000003 15.223899999999999 2.1636 12.0201 C 2.1566 8.8164 2.1689000000000003 8.4371 2.2243000000000004 7.1720999999999995 C 2.2743 6.0031 2.4699000000000004 5.3671 2.6323000000000003 4.943899999999999 C 2.8483000000000005 4.382599999999999 3.1085000000000003 3.9838999999999993 3.5273000000000003 3.5622999999999996 C 3.9461000000000004 3.1405999999999996 4.345700000000001 2.8808999999999996 4.905600000000001 2.6619999999999995 C 5.328600000000001 2.4968999999999997 5.963100000000001 2.3005999999999993 7.1326 2.2448999999999995 C 8.3981 2.1848999999999994 8.7773 2.1728999999999994 11.980599999999999 2.1658999999999993 C 15.1839 2.158899999999999 15.5641 2.170899999999999 16.830099999999998 2.2266999999999992 C 17.9991 2.2774999999999994 18.635399999999997 2.471199999999999 19.0581 2.634699999999999 C 19.6189 2.8506999999999993 20.0181 3.110099999999999 20.4397 3.529699999999999 C 20.8614 3.949099999999999 21.121299999999998 4.347299999999999 21.3402 4.908399999999999 C 21.505499999999998 5.3301 21.7019 5.9643999999999995 21.757099999999998 7.1347 C 21.817299999999996 8.4002 21.830999999999996 8.7797 21.836699999999997 11.9827 C 21.842499999999998 15.185699999999999 21.831199999999995 15.566099999999999 21.775699999999997 16.8307 C 21.7247 18.000700000000002 21.530699999999996 18.6362 21.367699999999996 19.0601 C 21.151699999999995 19.6205 20.891399999999997 20.0201 20.472299999999997 20.441499999999998 C 20.053299999999997 20.863 19.654199999999996 21.1226 19.093999999999998 21.341499999999996 C 18.671599999999998 21.506399999999996 18.036299999999997 21.703199999999995 16.8678 21.758899999999997 C 15.6022 21.818399999999997 15.222999999999999 21.830899999999996 12.0185 21.837899999999998 C 8.814 21.8449 8.436 21.831899999999997 7.1705 21.777099999999997 M 16.953 5.5864 C 16.953972061986672 6.168878956423396 17.305757006320366 6.693406502604862 17.84429230961934 6.915357863675879 C 18.382827612918312 7.137309224746895 19.002037308581446 7.012966365845463 19.413139551878707 6.600319270694472 C 19.824241795175972 6.187672175543481 19.946261267381725 5.568000454254185 19.722291546449675 5.030301427208187 C 19.49832182551762 4.4926024001621885 18.97247850515484 4.142787311589881 18.39 4.144 C 17.594943986533366 4.145655263163179 16.95167318069057 4.791343370572815 16.953 5.5864 M 5.8385 12.012 C 5.8452 15.4152 8.6091 18.1677 12.0115 18.1613 C 15.4141 18.1548 18.1685 15.391200000000001 18.1621 11.988 C 18.1556 8.5848 15.391099999999998 5.831499999999999 11.9881 5.8382 C 8.585099999999999 5.8449 5.8321 8.6092 5.838499999999999 12.012 M 8 12.0077 C 7.9956414071042134 9.79858037480973 9.782942046783946 8.004195788496109 11.992061629810479 7.999815877366022 C 14.201181212837012 7.995435966235935 15.995583046704434 9.782719289834272 15.999984276068414 11.991838830491345 C 16.004385505432392 14.200958371148419 14.21711949808189 15.99537745240254 12.008000000000003 15.9998 C 10.94708378844075 16.0020300126595 9.928747333244068 15.582658643956918 9.17707514361373 14.833968387414187 C 8.42540295398339 14.085278130871453 8.001987077527438 13.068616694386789 8 12.0077" stroke-linecap="round" />
</g>
</svg>