<svg xmlns="http://www.w3.org/2000/svg" width="200" height="200" viewBox="0 0 200 200" version="1.1">
	<path d="M 84.662 6.821 C 81.357 10.473, 47.452 101.535, 36.989 134.861 C 33.393 146.315, 32.994 148.422, 34.194 149.623 C 36.714 152.142, 50.107 154.071, 69.336 154.684 C 81.729 155.079, 88.298 155.664, 88.539 156.392 C 88.741 157.002, 89.325 165.266, 89.837 174.757 C 90.428 185.727, 91.219 192.559, 92.006 193.507 C 93.642 195.479, 99.440 195.417, 101.451 193.407 C 102.643 192.214, 102.904 190.641, 102.489 187.157 C 100.282 168.639, 99.334 156.420, 100.068 155.962 C 100.543 155.666, 108.935 154.604, 118.716 153.601 C 135.449 151.886, 136.943 151.877, 144 153.441 C 158.604 156.677, 161.182 156.675, 164.430 153.427 C 166.828 151.029, 166.352 148.037, 162.117 138.888 C 159.982 134.275, 157.922 128.733, 157.539 126.574 C 156.571 121.112, 150.334 109.044, 132.216 77.581 C 123.639 62.686, 111.970 41.149, 106.285 29.719 C 97.863 12.788, 95.351 8.575, 92.724 6.973 C 88.712 4.527, 86.771 4.490, 84.662 6.821 M 89.159 22.111 C 70.546 71.704, 57.411 108.555, 55.047 117.816 C 51.798 130.543, 49.180 143.997, 49.876 144.390 C 50.219 144.585, 58.938 145.060, 69.250 145.447 L 88 146.151 88 118.044 C 88 93.365, 88.192 89.863, 89.578 89.332 C 92.021 88.394, 96.412 92.279, 97.224 96.096 C 97.623 97.968, 98.298 103.733, 98.724 108.906 L 99.500 118.312 108.267 107.656 C 117.521 96.408, 119.896 95.017, 123.345 98.829 C 126.230 102.017, 125.199 104.647, 117.065 114.857 C 101.597 134.274, 100 136.777, 100 141.610 L 100 146 103.750 146.015 C 105.813 146.023, 114.700 145.502, 123.500 144.857 C 137 143.867, 140.629 143.914, 146.722 145.156 L 153.945 146.628 153.345 144.064 C 151.178 134.809, 140.601 113.037, 122.331 80.223 C 115.372 67.726, 105.430 49.175, 100.238 39 C 95.046 28.825, 90.631 20.325, 90.427 20.111 C 90.223 19.898, 89.653 20.798, 89.159 22.111" stroke="none" fill="black" fill-rule="evenodd"/>
</svg>