<?xml version="1.0" encoding="UTF-8" standalone="no" ?>
<!DOCTYPE svg PUBLIC "-//W3C//DTD SVG 1.1//EN" "http://www.w3.org/Graphics/SVG/1.1/DTD/svg11.dtd">
<svg xmlns="http://www.w3.org/2000/svg" xmlns:xlink="http://www.w3.org/1999/xlink" version="1.1" width="24" height="24" viewBox="0 0 24 24" xml:space="preserve">
<desc>Created with Fabric.js 5.3.0</desc>
<defs>
</defs>
<g transform="matrix(1 0 0 1 12 12)" id="C8f7VNaJ0zyGCIbnetv1r"  >
<path style="stroke: none; stroke-width: 1; stroke-dasharray: none; stroke-linecap: butt; stroke-dashoffset: 0; stroke-linejoin: miter; stroke-miterlimit: 4; fill: rgb(255,255,255); fill-rule: nonzero; opacity: 1;"  transform=" translate(-12, -12.0005)" d="M 9.489 0.004 L 10.218 0.001 L 13.782 0.001 L 14.512 0.004 L 15.426 0.014 L 15.859 0.021 L 16.277 0.032 L 16.68 0.046 L 17.068 0.062 L 17.442 0.083 L 17.802 0.10800000000000001 L 18.147 0.138 L 18.479999999999997 0.171 C 20.219999999999995 0.367 21.412999999999997 0.787 22.312999999999995 1.687 C 23.212999999999994 2.587 23.632999999999996 3.779 23.828999999999994 5.5200000000000005 L 23.862999999999992 5.853000000000001 L 23.891999999999992 6.199000000000001 L 23.91699999999999 6.559000000000001 L 23.93699999999999 6.932000000000001 L 23.96199999999999 7.520000000000001 L 23.97399999999999 7.9300000000000015 L 23.98699999999999 8.574000000000002 L 23.99599999999999 9.489 L 23.999999999999993 10.469000000000001 L 23.99899999999999 13.782000000000002 L 23.99599999999999 14.512000000000002 L 23.98599999999999 15.426000000000002 L 23.97899999999999 15.859000000000002 L 23.96799999999999 16.277 L 23.95399999999999 16.68 L 23.93799999999999 17.068 L 23.91699999999999 17.442 L 23.891999999999992 17.802 L 23.86199999999999 18.147 L 23.82899999999999 18.479999999999997 C 23.63299999999999 20.219999999999995 23.21299999999999 21.412999999999997 22.312999999999988 22.312999999999995 C 21.41299999999999 23.212999999999994 20.22099999999999 23.632999999999996 18.47999999999999 23.828999999999994 L 18.14699999999999 23.862999999999992 L 17.80099999999999 23.891999999999992 L 17.440999999999992 23.91699999999999 L 17.06799999999999 23.93699999999999 L 16.47999999999999 23.96199999999999 L 16.06999999999999 23.97399999999999 L 15.42599999999999 23.98699999999999 L 14.510999999999989 23.99599999999999 L 13.530999999999988 23.999999999999993 L 10.217999999999988 23.99899999999999 L 9.487999999999987 23.99599999999999 L 8.573999999999987 23.98599999999999 L 8.140999999999988 23.97899999999999 L 7.722999999999987 23.96799999999999 L 7.319999999999988 23.95399999999999 L 6.931999999999988 23.93799999999999 L 6.557999999999988 23.91699999999999 L 6.197999999999988 23.891999999999992 L 5.852999999999988 23.86199999999999 L 5.519999999999988 23.82899999999999 C 3.779999999999988 23.63299999999999 2.586999999999988 23.21299999999999 1.6869999999999878 22.312999999999988 C 0.7869999999999878 21.41299999999999 0.3669999999999878 20.22099999999999 0.17099999999998783 18.47999999999999 L 0.13699999999998783 18.14699999999999 L 0.10799999999998783 17.80099999999999 L 0.08299999999998783 17.440999999999992 L 0.06299999999998783 17.06799999999999 L 0.03799999999998783 16.47999999999999 L 0.025999999999987828 16.06999999999999 L 0.012999999999987829 15.42599999999999 L 0.003999999999987829 14.510999999999989 L -1.2170819907453279e-14 13.530999999999988 L 0.0009999999999878292 10.217999999999988 L 0.003999999999987829 9.487999999999987 L 0.01399999999998783 8.573999999999987 L 0.02099999999998783 8.140999999999988 L 0.03199999999998783 7.722999999999987 L 0.04599999999998783 7.319999999999988 L 0.06199999999998783 6.931999999999988 L 0.08299999999998783 6.557999999999988 L 0.10799999999998783 6.197999999999988 L 0.13799999999998783 5.852999999999988 L 0.17099999999998783 5.519999999999988 C 0.36699999999998784 3.779999999999988 0.7869999999999878 2.586999999999988 1.6869999999999878 1.6869999999999878 C 2.5869999999999878 0.7869999999999878 3.778999999999988 0.3669999999999878 5.519999999999988 0.17099999999998783 L 5.852999999999988 0.13699999999998783 L 6.198999999999988 0.10799999999998783 L 6.558999999999989 0.08299999999998783 L 6.931999999999989 0.06299999999998783 L 7.519999999999989 0.03799999999998783 L 7.929999999999989 0.025999999999987828 L 8.57399999999999 0.012999999999987829 L 9.48899999999999 0.003999999999987829 Z M 6.79 7.3 L 4.05 7.3 C 4.18 13.54 7.3 17.29 12.77 17.29 L 13.08 17.29 L 13.08 13.719999999999999 C 15.09 13.919999999999998 16.61 15.389999999999999 17.22 17.29 L 20.06 17.29 C 19.279999999999998 14.45 17.229999999999997 12.879999999999999 15.95 12.28 C 17.23 11.54 19.03 9.739999999999998 19.46 7.299999999999999 L 16.880000000000003 7.299999999999999 C 16.320000000000004 9.28 14.660000000000002 11.079999999999998 13.080000000000002 11.25 L 13.080000000000002 7.3 L 10.5 7.3 L 10.5 14.219999999999999 C 8.9 13.819999999999999 6.88 11.879999999999999 6.79 7.299999999999999 Z" stroke-linecap="round" />
</g>
</svg>